<svg xmlns="http://www.w3.org/2000/svg" viewBox="0 0 400 180" width="400" height="180">
  <rect width="400" height="180" fill="#ECEEF2"/>

  <!-- FRONT WHEELS (zone: tren_rodaje, x 0-10%) -->
  <rect x="8" y="20" width="28" height="48" rx="7" fill="#282828" stroke="#111" stroke-width="1.5"/>
  <rect x="13" y="26" width="18" height="36" rx="4" fill="#3C3C3C"/>
  <rect x="8" y="112" width="28" height="48" rx="7" fill="#282828" stroke="#111" stroke-width="1.5"/>
  <rect x="13" y="118" width="18" height="36" rx="4" fill="#3C3C3C"/>

  <!-- TRIPLE REAR AXLE WHEELS -->
  <rect x="274" y="12" width="20" height="36" rx="4" fill="#282828" stroke="#111" stroke-width="1.5"/>
  <rect x="298" y="12" width="20" height="36" rx="4" fill="#282828" stroke="#111" stroke-width="1.5"/>
  <rect x="330" y="12" width="20" height="36" rx="4" fill="#282828" stroke="#111" stroke-width="1.5"/>
  <rect x="354" y="12" width="20" height="36" rx="4" fill="#282828" stroke="#111" stroke-width="1.5"/>
  <rect x="274" y="132" width="20" height="36" rx="4" fill="#282828" stroke="#111" stroke-width="1.5"/>
  <rect x="298" y="132" width="20" height="36" rx="4" fill="#282828" stroke="#111" stroke-width="1.5"/>
  <rect x="330" y="132" width="20" height="36" rx="4" fill="#282828" stroke="#111" stroke-width="1.5"/>
  <rect x="354" y="132" width="20" height="36" rx="4" fill="#282828" stroke="#111" stroke-width="1.5"/>

  <!-- MAIN BODY FRAME -->
  <rect x="36" y="26" width="340" height="128" rx="10" fill="#E0E4EE" stroke="#A0AECC" stroke-width="2"/>

  <!-- ZONE 2: CAB / MOTOR (x 10-30%) -->
  <rect x="40" y="30" width="76" height="120" rx="8" fill="#CDD6EC" stroke="#8898BE" stroke-width="1.5"/>
  <rect x="48" y="44" width="56" height="28" rx="4" fill="#A4C4E8" stroke="#6688B8" stroke-width="1.2" opacity="0.9"/>
  <line x1="116" y1="30" x2="116" y2="150" stroke="#8898BE" stroke-width="1.5"/>
  <rect x="44" y="86" width="48" height="22" rx="3" fill="none" stroke="#B09058" stroke-width="1.2" stroke-dasharray="3,2"/>
  <text x="68" y="100" text-anchor="middle" font-size="8" fill="#806038" font-family="Arial,sans-serif" font-weight="bold">MOTOR</text>

  <!-- ZONE 3: TANQUE CISTERNA (x 30-80%) -->
  <rect x="122" y="32" width="192" height="116" rx="58" fill="#B8D4F8" stroke="#5070C8" stroke-width="2"/>
  <rect x="134" y="44" width="168" height="92" rx="44" fill="#A8C8F4" stroke="#5070C8" stroke-width="1" stroke-dasharray="6,4"/>
  <text x="218" y="87" text-anchor="middle" font-size="9" fill="#182880" font-family="Arial,sans-serif" font-weight="bold">TANQUE</text>
  <text x="218" y="99" text-anchor="middle" font-size="8" fill="#182880" font-family="Arial,sans-serif">CISTERNA</text>
  <!-- Tank section rings -->
  <line x1="172" y1="44" x2="172" y2="136" stroke="#5070C8" stroke-width="0.8" stroke-dasharray="4,4" opacity="0.4"/>
  <line x1="218" y1="34" x2="218" y2="146" stroke="#5070C8" stroke-width="0.8" stroke-dasharray="4,4" opacity="0.4"/>
  <line x1="264" y1="44" x2="264" y2="136" stroke="#5070C8" stroke-width="0.8" stroke-dasharray="4,4" opacity="0.4"/>

  <!-- ZONE 4: SISTEMA BOMBEO (x 80-97%) -->
  <rect x="322" y="36" width="48" height="108" rx="6" fill="#D8ECF8" stroke="#6898C8" stroke-width="1.5"/>
  <rect x="328" y="46" width="36" height="26" rx="4" fill="#B8D4F0" stroke="#5080B8" stroke-width="1.5"/>
  <rect x="328" y="80" width="36" height="18" rx="3" fill="#B8D4F0" stroke="#5080B8" stroke-width="1.2"/>
  <rect x="328" y="106" width="36" height="18" rx="3" fill="#B8D4F0" stroke="#5080B8" stroke-width="1"/>
  <circle cx="346" cy="59" r="6" fill="#90C0EC" stroke="#4070B0" stroke-width="1.2"/>
  <circle cx="346" cy="89" r="4" fill="#90C0EC" stroke="#4070B0" stroke-width="1"/>
  <circle cx="346" cy="115" r="4" fill="#90C0EC" stroke="#4070B0" stroke-width="1"/>
  <text x="346" y="95" text-anchor="middle" font-size="6.5" fill="#183878" font-family="Arial,sans-serif" font-weight="bold" transform="rotate(-90 346 100)">BOMBEO</text>
</svg>
