<svg xmlns="http://www.w3.org/2000/svg" viewBox="0 0 400 180" width="400" height="180">
  <rect width="400" height="180" fill="#ECEEF2"/>

  <!-- FRONT WHEELS (zone: tren_rodaje, x 0-10%) -->
  <rect x="8" y="20" width="28" height="48" rx="7" fill="#282828" stroke="#111" stroke-width="1.5"/>
  <rect x="13" y="26" width="18" height="36" rx="4" fill="#3C3C3C"/>
  <rect x="8" y="112" width="28" height="48" rx="7" fill="#282828" stroke="#111" stroke-width="1.5"/>
  <rect x="13" y="118" width="18" height="36" rx="4" fill="#3C3C3C"/>

  <!-- REAR WHEELS dual axle -->
  <rect x="300" y="14" width="22" height="38" rx="5" fill="#282828" stroke="#111" stroke-width="1.5"/>
  <rect x="326" y="14" width="22" height="38" rx="5" fill="#282828" stroke="#111" stroke-width="1.5"/>
  <rect x="300" y="128" width="22" height="38" rx="5" fill="#282828" stroke="#111" stroke-width="1.5"/>
  <rect x="326" y="128" width="22" height="38" rx="5" fill="#282828" stroke="#111" stroke-width="1.5"/>

  <!-- MAIN BODY -->
  <rect x="36" y="26" width="340" height="128" rx="10" fill="#E0E4EE" stroke="#A0AECC" stroke-width="2"/>

  <!-- ZONE 2: CAB / MOTOR (x 10-34%) -->
  <rect x="40" y="30" width="92" height="120" rx="8" fill="#CDD6EC" stroke="#8898BE" stroke-width="1.5"/>
  <rect x="50" y="43" width="62" height="32" rx="4" fill="#A4C4E8" stroke="#6688B8" stroke-width="1.2" opacity="0.9"/>
  <line x1="132" y1="30" x2="132" y2="150" stroke="#8898BE" stroke-width="1.5"/>
  <rect x="46" y="87" width="52" height="24" rx="3" fill="none" stroke="#B09058" stroke-width="1.2" stroke-dasharray="3,2"/>
  <text x="72" y="102" text-anchor="middle" font-size="8" fill="#806038" font-family="Arial,sans-serif" font-weight="bold">MOTOR</text>

  <!-- ZONE 3: TANQUE FUMIGANTE (x 34-74%) -->
  <ellipse cx="214" cy="90" rx="70" ry="48" fill="#D0ECCF" stroke="#5A9852" stroke-width="2"/>
  <ellipse cx="214" cy="90" rx="58" ry="37" fill="#C0E4BC" stroke="#5A9852" stroke-width="1" stroke-dasharray="4,3"/>
  <text x="214" y="86" text-anchor="middle" font-size="8.5" fill="#1E5818" font-family="Arial,sans-serif" font-weight="bold">TANQUE</text>
  <text x="214" y="97" text-anchor="middle" font-size="7.5" fill="#1E5818" font-family="Arial,sans-serif">FUMIGANTE</text>

  <!-- ZONE 4: BOMBA / COMPRESOR (x 74-84%) -->
  <rect x="292" y="40" width="40" height="100" rx="5" fill="#EAD8F8" stroke="#9068C8" stroke-width="1.5"/>
  <rect x="298" y="50" width="28" height="22" rx="3" fill="#DCC0F0" stroke="#9068C8" stroke-width="1.2"/>
  <rect x="298" y="80" width="28" height="22" rx="3" fill="#DCC0F0" stroke="#9068C8" stroke-width="1.2"/>
  <circle cx="312" cy="61" r="5" fill="#9068C8" opacity="0.6"/>
  <circle cx="312" cy="91" r="5" fill="#9068C8" opacity="0.6"/>
  <text x="312" y="116" text-anchor="middle" font-size="7" fill="#501890" font-family="Arial,sans-serif" font-weight="bold" transform="rotate(-90 312 116)">BOMBA</text>

  <!-- ZONE 5: BOQUILLAS / ASPERSION (x 84-97%) -->
  <rect x="338" y="28" width="32" height="124" rx="5" fill="#D0E8F8" stroke="#6090C8" stroke-width="1.5"/>
  <circle cx="354" cy="48" r="7" fill="#90C0F0" stroke="#5080B0" stroke-width="1.2"/>
  <circle cx="354" cy="68" r="7" fill="#90C0F0" stroke="#5080B0" stroke-width="1.2"/>
  <circle cx="354" cy="90" r="7" fill="#90C0F0" stroke="#5080B0" stroke-width="1.2"/>
  <circle cx="354" cy="112" r="7" fill="#90C0F0" stroke="#5080B0" stroke-width="1.2"/>
  <circle cx="354" cy="132" r="7" fill="#90C0F0" stroke="#5080B0" stroke-width="1.2"/>
  <line x1="361" y1="48" x2="370" y2="44" stroke="#5080B0" stroke-width="1" stroke-dasharray="2,2"/>
  <line x1="361" y1="68" x2="370" y2="66" stroke="#5080B0" stroke-width="1" stroke-dasharray="2,2"/>
  <line x1="361" y1="90" x2="372" y2="90" stroke="#5080B0" stroke-width="1" stroke-dasharray="2,2"/>
  <line x1="361" y1="112" x2="370" y2="114" stroke="#5080B0" stroke-width="1" stroke-dasharray="2,2"/>
  <line x1="361" y1="132" x2="370" y2="136" stroke="#5080B0" stroke-width="1" stroke-dasharray="2,2"/>
</svg>
